<svg width="24px" height="24px" viewBox="0 0 4 6" fill="none" xmlns="http://www.w3.org/2000/svg">
  <style
     id="style2"> path { fill:#464646;}</style>
  <g
     id="g2049"
     transform="translate(-8.2383224,-5.6345806)">
    <path
       id="path1783"
       d="m 10.664898,6.5621821 c 0.0039,-0.00388 0.0072,-0.090796 0.0073,-0.1931458 l 2.65e-4,-0.1860902 0.04341,-0.046004 0.04341,-0.046004 0.491091,0.037469 c 0.539962,0.041198 0.54229,0.041126 0.62118,-0.019046 0.0516,-0.03936 0.09158,-0.1226061 0.09145,-0.1904303 -1.45e-4,-0.074922 -0.03924,-0.1546441 -0.096,-0.19576 -0.08091,-0.058611 -0.08563,-0.058711 -0.531051,-0.011322 -0.222597,0.023683 -0.441709,0.047927 -0.486915,0.053877 l -0.08219,0.010818 -0.05083,-0.052181 c -0.06071,-0.06233 -0.09921,-0.083674 -0.176805,-0.098018 -0.101148,-0.018698 -0.218355,0.024162 -0.287516,0.1051398 l -0.02337,0.02736 -0.4634661,-0.034367 c -0.25489,-0.018902 -0.48933,-0.034207 -0.520962,-0.034012 -0.10987,6.795e-4 -0.197433,0.068568 -0.229425,0.1778758 -0.03898,0.1331819 0.05609,0.2849305 0.190496,0.3040656 0.02469,0.00352 0.251844,-0.016444 0.525066,-0.046139 0.4154181,-0.045149 0.4827531,-0.050213 0.4903621,-0.03688 0.0048,0.0085 0.02271,0.031276 0.03969,0.050612 l 0.03087,0.035157 v 0.1970405 0.1970402 h 0.183445 c 0.100894,0 0.186619,-0.00317 0.1905,-0.00706 z" />
    <path
       id="path1781"
       d="M 10.873037,7.262446 V 7.151321 h -0.03175 -0.03175 V 6.9714044 c 0,-0.1528704 0.0024,-0.1799167 0.01587,-0.1799167 0.01249,0 0.01588,-0.014715 0.01588,-0.068932 v -0.068932 l -0.357188,0.00279 -0.357187,0.00279 -0.0031,0.065439 -0.0031,0.065439 0.03488,0.00335 0.03488,0.00335 0.0029,0.1766806 0.0029,0.1766805 -0.05052,0.00324 -0.05052,0.00324 -0.003,0.1084791 -0.003,0.1084792 h 0.391953 0.391954 z" />
    <path
       id="path1779"
       d="M 12.873287,8.4274535 V 7.087821 h -0.02454 c -0.09776,0 -0.21227,0.073991 -0.257702,0.1665126 -0.02967,0.060429 -0.02999,0.063216 -0.03267,0.283279 -0.0015,0.1222375 -0.0027,0.2279602 -0.0026,0.2349391 4.2e-5,0.00918 -0.01089,0.00812 -0.03947,-0.00383 -0.05308,-0.022177 -0.131406,-0.01233 -0.185226,0.023286 -0.04903,0.032447 -0.0816,0.096443 -0.08193,0.1609966 l -2.33e-4,0.044979 h -0.50125 -0.501204 l -0.03975,-0.0644 c -0.04566,-0.073973 -0.146636,-0.185495 -0.201467,-0.2225076 -0.03667,-0.024753 -0.03741,-0.026661 -0.03457,-0.088796 0.0019,-0.041292 0.0075,-0.063963 0.01613,-0.064823 0.0073,-7.281e-4 0.02037,-0.00192 0.0291,-0.00265 0.01258,-0.00105 0.01587,-0.017786 0.01587,-0.080698 V 7.3947377 H 10.470413 9.9090509 l 0.0031,0.082021 c 0.0029,0.076627 0.0047,0.082108 0.0269,0.083344 0.0131,7.282e-4 0.02858,0.00192 0.03439,0.00265 0.0058,7.281e-4 0.01047,0.026326 0.01033,0.056885 -2.37e-4,0.052644 -0.0025,0.05723 -0.04342,0.087312 -0.06331,0.046565 -0.159941,0.1530845 -0.204783,0.2257339 l -0.03919,0.063491 -0.430327,0.00449 c -0.398166,0.00415 -0.435613,0.00612 -0.501055,0.026416 -0.209802,0.065053 -0.364074,0.2023858 -0.43396,0.3863103 -0.01621,0.042667 -0.03427,0.1860378 -0.0783,0.6217168 -0.03148,0.311444 -0.05725,0.569834 -0.05727,0.574199 -2.1e-5,0.0044 0.199253,0.0079 0.442828,0.0079 h 0.442862 l 0.0067,-0.187854 c 0.0098,-0.273579 0.03738,-0.3789 0.12375,-0.472601 0.07903,-0.085736 0.197968,-0.1293891 0.380795,-0.1397584 l 0.111125,-0.0063 0.02299,0.041441 c 0.06946,0.1252194 0.211923,0.2550694 0.3580131,0.3263134 0.280284,0.136686 0.607967,0.116601 0.867887,-0.0532 0.08118,-0.05303 0.201066,-0.1744663 0.248655,-0.2518636 l 0.03704,-0.060243 0.505354,-1.344e-4 0.505354,-1.348e-4 v 0.036353 c 0,0.1435598 0.15212,0.2314018 0.296333,0.1711178 0.01386,-0.0058 0.01554,0.02123 0.01327,0.213092 -0.003,0.255103 0.0061,0.329506 0.04772,0.388729 0.05491,0.07816 0.115404,0.11401 0.232697,0.137888 l 0.0344,0.007 z" />
    <path
       id="path1777"
       d="m 9.1480749,10.948092 c 0.06165,-0.04196 0.07849,-0.07478 0.08287,-0.161466 0.0069,-0.136891 -0.06708,-0.346977 -0.210168,-0.59673 -0.0913,-0.159366 -0.193063,-0.3178873 -0.204342,-0.3183223 -0.01167,-4.49e-4 -7.99e-4,0.4532673 0.01406,0.5870393 0.02769,0.249256 0.07308,0.397879 0.143021,0.468312 0.03931,0.03959 0.05035,0.04498 0.09211,0.04498 0.03179,0 0.059,-0.0079 0.08244,-0.02381 z" />
    <path
       id="path1775"
       d="m 7.9807689,11.142217 c 0.115982,-0.07286 0.202594,-0.319925 0.250778,-0.715354 0.01763,-0.144639 0.04243,-0.5158823 0.0358,-0.5357743 -0.01,-0.02996 -0.290706,0.4572183 -0.384895,0.6679663 -0.09428,0.210952 -0.139612,0.384761 -0.124689,0.478081 0.0045,0.0284 0.01932,0.05786 0.04075,0.08125 0.02887,0.03151 0.04173,0.0373 0.09094,0.04095 0.04438,0.0033 0.06498,-5.68e-4 0.09132,-0.01712 z" />
    <path
       id="path1773"
       d="m 8.6055049,11.558174 c 0.04329,-0.02188 0.06986,-0.06492 0.09406,-0.152353 0.02615,-0.09449 0.02648,-0.459289 6.14e-4,-0.678111 -0.04054,-0.342999 -0.1317,-0.8553543 -0.145533,-0.8179613 -0.01309,0.03539 -0.08164,0.3875933 -0.109919,0.5647393 -0.05812,0.364138 -0.07651,0.745276 -0.04349,0.901107 0.03378,0.159388 0.111935,0.229242 0.204268,0.182579 z" />
  </g>
</svg>
